Coordinates
version=1
nRows=12
nColumns=33
inDegrees=yes

Units are S.I. units (second, meters, Newtons, ...)
Angles are in degrees.

endheader
time	ground_thorax_rot_x	ground_thorax_rot_y	ground_thorax_rot_z	ground_thorax_tx	ground_thorax_ty	ground_thorax_tz	clav_prot_r	clav_elev_r	scapula_abduction_r	scapula_elevation_r	scapula_upward_rot_r	scapula_winging_r	shoulder_elv_r	plane_of_elev_r	axial_rot_r	elbow_flexion_r	pro_sup_r	wrist_flex_r	wrist_dev_r	clav_prot_l	clav_elev_l	scapula_abduction_l	scapula_elevation_l	scapula_upward_rot_l	scapula_winging_l	shoulder_elv_l	plane_of_elev_l	axial_rot_l	elbow_flexion_l	pro_sup_l	wrist_flex_l	wrist_dev_l
      1.79000000	      3.30480355	     -4.89652888	     12.37197977	     -0.11592403	      1.04295300	      0.00968093	      9.42912474	      0.92791452	     28.19684141	     -1.12595063	     20.98313129	    -12.19158103	     55.40513824	     31.66665293	    -25.16467238	     97.56179688	     51.24761075	      9.64889393	     -3.74229220	      9.54038573	     -4.54310232	    -17.60578446	     -0.92416400	     -0.33147380	      5.12455498	     62.19287037	     48.60243685	     15.79163629	     95.07949149	     29.70585730	    -12.30708776	    -15.90542740
      1.80000000	      3.37401985	     -4.92301464	     12.38876454	     -0.11597240	      1.04300804	      0.00986621	      9.40411110	      0.80285173	     28.11877656	     -1.20849193	     20.91425076	    -12.12923745	     55.36868711	     31.68816632	    -25.11251730	     98.68894312	     51.16771482	      9.75294599	     -3.92545271	      9.45402811	     -4.49223436	    -17.49627824	     -0.92868837	     -0.23330083	      5.10057895	     62.40133039	     48.57969340	     15.86749210	     96.02450042	     29.68946361	    -12.39923717	    -16.02790239
      1.81000000	      3.40838816	     -4.92082530	     12.41407421	     -0.11604564	      1.04309167	      0.00993248	      9.39539611	      0.69399990	     28.04280414	     -1.26819501	     20.81452517	    -12.06809313	     55.33587412	     31.61290347	    -25.10757529	     99.89521041	     51.10080649	      9.86611071	     -4.16275237	      9.39341657	     -4.48223066	    -17.41810936	     -0.91337389	     -0.17463867	      5.07454328	     62.61374715	     48.57455946	     15.88485553	     96.88650717	     29.70625650	    -12.47073708	    -16.13415525
      1.82000000	      3.44546613	     -4.87313695	     12.43202247	     -0.11613385	      1.04312785	      0.01006301	      9.40081336	      0.58941331	     27.96821501	     -1.31420980	     20.68198628	    -12.01038943	     55.32179835	     31.51291359	    -25.06711003	    101.12965317	     51.04002395	      9.99201950	     -4.41078044	      9.34917789	     -4.49255193	    -17.35731904	     -0.89075762	     -0.14158700	      5.04804258	     62.78774725	     48.60934022	     15.89720829	     97.70705971	     29.72550958	    -12.54014358	    -16.22716762
      1.83000000	      3.52121097	     -4.87359905	     12.44653569	     -0.11628382	      1.04314717	      0.01006646	      9.40960571	      0.46952747	     27.87586583	     -1.36104949	     20.51411046	    -11.94083766	     55.31207828	     31.43456885	    -24.96887707	    102.35963128	     50.97129423	     10.12405000	     -4.63316853	      9.30926100	     -4.51587889	    -17.30894107	     -0.85175138	     -0.09895736	      5.02109689	     62.87815884	     48.68167804	     15.98765486	     98.42410751	     29.72394171	    -12.61546061	    -16.29921402
      1.84000000	      3.42931540	     -4.75409793	     12.67615758	     -0.11718537	      1.04298014	      0.01000310	      9.87754996	      0.46056320	     28.85581423	     -1.44038050	     20.73646526	    -12.32404692	     54.98608492	     30.16834602	    -24.80371562	    103.90042936	     51.57630405	     10.22193577	     -6.12517129	      9.78099318	     -4.45056807	    -17.97436869	     -1.04137395	     -0.41955587	      5.29646011	     63.79205890	     48.41288531	     16.45603035	     99.37752235	     30.80848167	    -12.47753527	    -15.55086399
      1.85000000	      3.53214064	     -4.70732921	     12.66070517	     -0.11719111	      1.04294413	      0.01016277	      9.85733974	      0.34325697	     28.72486100	     -1.49263971	     20.58678177	    -12.23918926	     54.98724706	     30.10095675	    -24.65676978	    105.12951509	     51.45109632	     10.32924798	     -6.27316975	      9.72430205	     -4.47131483	    -17.87343046	     -1.02670234	     -0.42765340	      5.24596671	     63.89204649	     48.44968146	     16.46067947	    100.18673082	     30.76404746	    -12.54174155	    -15.64714397
      1.86000000	      3.49760263	     -4.63167213	     12.75759924	     -0.11736064	      1.04312021	      0.01012048	      9.91165013	      0.17666871	     28.61025614	     -1.53362172	     20.27122780	    -12.14659000	     54.82594938	     29.84319183	    -24.54210265	    106.56339129	     51.26567827	     10.36454438	     -6.48097692	      9.72540084	     -4.60427218	    -17.82291573	     -0.96744132	     -0.56638376	      5.17854987	     64.02763816	     48.48176907	     16.25916230	    100.82908206	     30.76086319	    -12.51639005	    -15.68504886
      1.87000000	      3.62253119	     -4.56864635	     12.72047523	     -0.11735081	      1.04298748	      0.01027356	      9.91188822	      0.05167039	     28.48894018	     -1.57919699	     20.08321681	    -12.06192370	     54.87331869	     29.73704196	    -24.31406987	    107.81692203	     51.15105164	     10.46194418	     -6.64533815	      9.68738969	     -4.61636611	    -17.74236738	     -0.97027394	     -0.59801930	      5.13700244	     64.09486236	     48.54037485	     16.26710742	    101.60880510	     30.71608513	    -12.57118118	    -15.75808534
      1.88000000	      3.58521424	     -4.46866237	     12.84177982	     -0.11756508	      1.04316702	      0.01018227	     10.00713688	     -0.17698861	     28.40925769	     -1.65067156	     19.70309363	    -11.96941273	     54.76474799	     29.38886217	    -24.14634974	    109.25206657	     50.98197783	     10.48689893	     -6.89493796	      9.73018986	     -4.76211343	    -17.73030440	     -0.93072918	     -0.81209487	      5.07591260	     64.18330700	     48.58908111	     16.01164019	    102.22026601	     30.71552881	    -12.50014497	    -15.75329824
      1.89000000	      3.71611021	     -4.40193445	     12.78239311	     -0.11755406	      1.04297273	      0.01038891	     10.01972527	     -0.32084834	     28.29766198	     -1.70592342	     19.49553265	    -11.87862509	     54.83514363	     29.25940628	    -23.89474323	    110.47598354	     50.88489949	     10.60779094	     -7.06516020	      9.69754872	     -4.76843901	    -17.65490369	     -0.94321203	     -0.85372822	      5.04086496	     64.23202880	     48.64326792	     16.01817382	    102.98173939	     30.67009991	    -12.53973571	    -15.81643204
      1.90000000	      3.78019121	     -4.33796365	     12.77691972	     -0.11757201	      1.04286927	      0.01047856	     10.06553434	     -0.50107920	     28.19115062	     -1.76559501	     19.20693884	    -11.78142274	     54.84789215	     29.05982909	    -23.68640200	    111.75016987	     50.79131028	     10.74672619	     -7.27233646	      9.69436913	     -4.81926252	    -17.60029957	     -0.94705525	     -0.96980347	      4.99376060	     64.29355566	     48.67642448	     15.90347993	    103.70087949	     30.63947349	    -12.53683628	    -15.87418319
